<svg width="25" height="25" viewBox="0 0 25 25" fill="none" xmlns="http://www.w3.org/2000/svg">
<path d="M23.4279 0.247165C23.0103 0.263364 22.6271 0.506337 22.406 0.895095L10.5749 20.7865L2.91023 13.5081C2.58104 13.1329 2.08726 12.9925 1.63278 13.1491C1.18077 13.303 0.844208 13.7241 0.765596 14.2371C0.686985 14.7527 0.876144 15.271 1.25938 15.5815L10.0246 23.9182C10.2997 24.1747 10.6633 24.2881 11.0195 24.2314C11.3782 24.172 11.6951 23.9479 11.8916 23.6158L24.5285 2.40693C24.7987 1.97228 24.8208 1.41074 24.5875 0.951789C24.3541 0.495539 23.9045 0.222868 23.4279 0.247165Z" fill="#AEE1FF"/>
</svg>
