<svg width="40" height="40" viewBox="0 0 40 40" fill="none" xmlns="http://www.w3.org/2000/svg">
<path fill-rule="evenodd" clip-rule="evenodd" d="M3.25603 0.100708C3.55606 0.0335186 3.8615 0 4.16667 0H18.0556V4.16511H4.16667V18.0488H1.16884e-05V4.17508C-0.00120901 3.65981 0.0931919 3.14731 0.280094 2.66398C0.526947 2.02506 0.927747 1.45688 1.44682 1.00976C1.96589 0.562658 2.58736 0.250414 3.25603 0.100708ZM21.9444 18.0488H40V4.16667C40 1.86549 38.1344 0 35.8333 0H21.9444V18.0488ZM30.0325 40H35.8333C38.1344 40 40 38.1344 40 35.8333V29.9411L30.0325 40ZM40 23.248V21.9512H35.3322L21.9444 35.4617V40H23.4001L40 23.248ZM21.9444 21.9512H28.6997L21.9444 28.7683V21.9512ZM18.0556 21.9362H1.16884e-05V35.8183C1.16884e-05 38.1194 1.86552 39.985 4.16667 39.985H18.0556V21.9362ZM4.58333 33.0431C5.88733 33.0431 6.94444 31.9864 6.94444 30.6828C6.94444 29.3794 5.88733 28.3228 4.58333 28.3228C3.27936 28.3228 2.22223 29.3794 2.22223 30.6828C2.22223 31.9864 3.27936 33.0431 4.58333 33.0431ZM15.8333 30.6828C15.8333 31.9864 14.7762 33.0431 13.4722 33.0431C12.1683 33.0431 11.1111 31.9864 11.1111 30.6828C11.1111 29.3794 12.1683 28.3228 13.4722 28.3228C14.7762 28.3228 15.8333 29.3794 15.8333 30.6828ZM9.30556 28.8781C10.6096 28.8781 11.6667 27.8214 11.6667 26.5178C11.6667 25.2143 10.6096 24.1576 9.30556 24.1576C8.00158 24.1576 6.94444 25.2143 6.94444 26.5178C6.94444 27.8214 8.00158 28.8781 9.30556 28.8781ZM11.6667 35.4033C11.6667 36.7069 10.6096 37.7636 9.30556 37.7636C8.00158 37.7636 6.94444 36.7069 6.94444 35.4033C6.94444 34.0997 8.00158 33.0431 9.30556 33.0431C10.6096 33.0431 11.6667 34.0997 11.6667 35.4033Z" fill="#AEE1FF"/>
</svg>
