<svg width="24" height="24" viewBox="0 0 24 24" fill="none" xmlns="http://www.w3.org/2000/svg">
<path d="M14.1153 12.0033L23.5426 2.57568C23.6857 2.43748 23.7999 2.27218 23.8784 2.0894C23.9569 1.90663 23.9982 1.71004 23.9999 1.51113C24.0017 1.31221 23.9638 1.11494 23.8884 0.930826C23.8131 0.746714 23.7019 0.579447 23.5612 0.438785C23.4205 0.298124 23.2533 0.186885 23.0692 0.111559C22.8851 0.0362324 22.6878 -0.00167198 22.4889 5.65642e-05C22.2899 0.00178511 22.0934 0.0431124 21.9106 0.121627C21.7278 0.200141 21.5625 0.31427 21.4243 0.457355L11.9966 9.88458L2.56933 0.457355C2.28735 0.181572 1.90799 0.0281152 1.51358 0.0302873C1.11916 0.0324594 0.741513 0.190085 0.46259 0.468957C0.183667 0.747829 0.0259738 1.12545 0.023732 1.51986C0.0214901 1.91427 0.174881 2.29366 0.450616 2.57568L9.87829 12.0033L0.450616 21.4309C0.308958 21.5694 0.196192 21.7347 0.118847 21.9171C0.0415016 22.0995 0.00111393 22.2955 2.27196e-05 22.4936C-0.00106849 22.6918 0.0371585 22.8882 0.11249 23.0714C0.187821 23.2547 0.298759 23.4212 0.438883 23.5613C0.579006 23.7014 0.74553 23.8123 0.928812 23.8876C1.11209 23.9629 1.30849 24.0011 1.50664 24C1.70478 23.9989 1.90073 23.9584 2.08314 23.8811C2.26556 23.8037 2.43081 23.6909 2.56933 23.5492L11.9966 14.122L21.4243 23.5492C21.7168 23.8417 22.1003 23.9881 22.4835 23.9881C22.8666 23.9881 23.2505 23.8417 23.5426 23.5492C23.8235 23.2683 23.9813 22.8873 23.9813 22.49C23.9813 22.0928 23.8235 21.7118 23.5426 21.4309L14.1153 12.0033Z" fill="#FF6B6B"/>
</svg>
