<svg width="31" height="36" viewBox="0 0 31 36" fill="none" xmlns="http://www.w3.org/2000/svg">
<path fill-rule="evenodd" clip-rule="evenodd" d="M10.8321 4.24818L12.2543 3.30002C12.4648 3.19483 12.6122 3.12153 12.7281 3.06665C12.7912 3.03673 12.8355 3.01684 12.8674 3.00331L12.8739 3.0006C12.904 3.00015 12.9412 3.00011 13 3.00011H18C18.0588 3.00011 18.096 3.00015 18.1261 3.0006L18.1325 3.00331C18.1645 3.01684 18.2088 3.03673 18.2719 3.06665C18.3878 3.12153 18.5352 3.19483 18.7457 3.30002L20.1679 4.24818L20.5458 4.50011H21H26.5V32.5001C26.5 32.7762 26.2761 33.0001 26 33.0001H5C4.72386 33.0001 4.5 32.7762 4.5 32.5001V4.50011H10H10.4542L10.8321 4.24818ZM1.5 1.50011H0V4.50011H1.5V32.5001C1.5 34.4331 3.067 36.0001 5 36.0001H26C27.933 36.0001 29.5 34.4331 29.5 32.5001V4.50011H31V1.50011H29.5H26.5H21.4542L20.3321 0.752034L20.2543 0.700234L20.1708 0.658474L20.0719 0.608954C19.6715 0.408435 19.3293 0.237076 19.0368 0.139587C18.6147 -0.00111158 18.2765 -0.000423599 18.0395 5.84013e-05L18 0.000112403H13L12.9605 5.84013e-05C12.7235 -0.000423599 12.3853 -0.00111158 11.9632 0.139587C11.6707 0.237075 11.3285 0.408431 10.9281 0.608944L10.8292 0.658474L10.7457 0.700234L10.6679 0.752034L9.54584 1.50011H4.5H1.5ZM8 10.5001H11V27.5001H8V10.5001ZM17 10.5001H14V27.5001H17V10.5001ZM20 10.5001H23V27.5001H20V10.5001Z" fill="#FFD3B6"/>
</svg>
