<svg width="40" height="40" viewBox="0 0 40 40" fill="none" xmlns="http://www.w3.org/2000/svg">
<path d="M20.5734 20.5176C21.5449 19.4309 22.324 18.0868 22.8581 16.5765C23.3921 15.0663 23.6685 13.4252 23.6685 11.7647C23.6685 8.64451 22.7094 5.65211 21.0022 3.4458C19.295 1.23949 16.9796 4.20967e-07 14.5652 4.20967e-07C12.1509 4.20967e-07 9.83544 1.23949 8.12825 3.4458C6.42105 5.65211 5.46196 8.64451 5.46196 11.7647C5.46195 13.4252 5.73834 15.0663 6.27238 16.5765C6.80642 18.0868 7.58561 19.4309 8.55707 20.5176C6.00841 22.0091 3.84607 24.4177 2.32858 27.4554C0.811093 30.4931 0.00267974 34.0313 0 37.6471C0 38.2711 0.191818 38.8696 0.533257 39.3108C0.874696 39.7521 1.33779 40 1.82065 40C2.30352 40 2.76661 39.7521 3.10805 39.3108C3.44949 38.8696 3.64131 38.2711 3.64131 37.6471C3.64131 33.9028 4.79222 30.3119 6.84085 27.6644C8.88948 25.0168 11.668 23.5294 14.5652 23.5294C17.4624 23.5294 20.241 25.0168 22.2896 27.6644C24.3382 30.3119 25.4892 33.9028 25.4892 37.6471C25.4892 38.2711 25.681 38.8696 26.0224 39.3108C26.3639 39.7521 26.8269 40 27.3098 40C27.7927 40 28.2558 39.7521 28.5972 39.3108C28.9386 38.8696 29.1305 38.2711 29.1305 37.6471C29.1278 34.0313 28.3194 30.4931 26.8019 27.4554C25.2844 24.4177 23.1221 22.0091 20.5734 20.5176ZM14.5652 18.8235C13.485 18.8235 12.4289 18.4095 11.5307 17.6339C10.6325 16.8583 9.93244 15.7558 9.51904 14.466C9.10563 13.1762 8.99747 11.7569 9.20822 10.3876C9.41897 9.01832 9.93917 7.76056 10.703 6.77336C11.4669 5.78617 12.4401 5.11388 13.4997 4.84152C14.5592 4.56915 15.6574 4.70894 16.6554 5.2432C17.6535 5.77747 18.5065 6.68222 19.1067 7.84303C19.7069 9.00385 20.0272 10.3686 20.0272 11.7647C20.0272 13.6368 19.4517 15.4323 18.4274 16.756C17.4031 18.0798 16.0138 18.8235 14.5652 18.8235ZM32.2984 19.5765C33.4636 17.8808 34.2247 15.786 34.4901 13.5443C34.7555 11.3026 34.514 9.00959 33.7946 6.94118C33.0751 4.87277 31.9084 3.11717 30.4349 1.8857C28.9614 0.654235 27.2439 -0.000606118 25.4892 4.20967e-07C25.0063 4.20967e-07 24.5432 0.247899 24.2018 0.689161C23.8603 1.13042 23.6685 1.7289 23.6685 2.35294C23.6685 2.97698 23.8603 3.57546 24.2018 4.01672C24.5432 4.45798 25.0063 4.70588 25.4892 4.70588C26.9378 4.70588 28.327 5.44958 29.3513 6.77336C30.3757 8.09715 30.9511 9.89259 30.9511 11.7647C30.9485 13.0006 30.6949 14.2139 30.2157 15.2833C29.7364 16.3528 29.0483 17.2409 28.2201 17.8588C27.9502 18.06 27.7248 18.3474 27.5654 18.6935C27.406 19.0396 27.318 19.4327 27.3098 19.8353C27.3022 20.2347 27.3734 20.6301 27.5168 20.9841C27.6601 21.3382 27.8708 21.6392 28.1291 21.8588L28.8392 22.4706L29.0758 22.6353C31.2705 23.9805 33.1219 26.1082 34.4121 28.7678C35.7024 31.4274 36.3777 34.5081 36.3585 37.6471C36.3585 38.2711 36.5503 38.8696 36.8917 39.3108C37.2332 39.7521 37.6962 40 38.1791 40C38.662 40 39.1251 39.7521 39.4665 39.3108C39.808 38.8696 39.9998 38.2711 39.9998 37.6471C40.0147 34.0363 39.3149 30.4806 37.967 27.3178C36.619 24.155 34.6677 21.4901 32.2984 19.5765Z" fill="#AEE1FF"/>
</svg>
