<svg width="40" height="40" viewBox="0 0 40 40" fill="none" xmlns="http://www.w3.org/2000/svg">
<path d="M19.9457 0.000744444C19.5904 0.0119468 19.2482 0.127762 18.9692 0.331267L3.17708 11.8154C1.17275 13.2735 0 15.5015 0 17.857V37.4359C0 38.8345 1.26267 40 2.77778 40H13.8889C15.404 40 16.6667 38.8345 16.6667 37.4359V27.1797C16.6667 26.8771 16.8944 26.6669 17.2222 26.6669H22.7778C23.1056 26.6669 23.3333 26.8771 23.3333 27.1797V37.4359C23.3333 38.8345 24.596 40 26.1111 40H37.2222C38.7373 40 40 38.8345 40 37.4359V17.857C40 15.5015 38.8272 13.2735 36.8229 11.8154L21.0308 0.331267C20.7226 0.106528 20.3383 -0.0105284 19.9457 0.000744444ZM20 3.49828L34.7613 14.2333C35.9658 15.1095 36.6667 16.4423 36.6667 17.857V36.9231H26.6667V27.1797C26.6667 25.2157 24.9055 23.5901 22.7778 23.5901H17.2222C15.0945 23.5901 13.3333 25.2157 13.3333 27.1797V36.9231H3.33333V17.857C3.33333 16.4423 4.03416 15.1095 5.23872 14.2333L20 3.49828Z" fill="#AEE1FF"/>
</svg>
