<svg width="40" height="40" viewBox="0 0 40 40" fill="none" xmlns="http://www.w3.org/2000/svg">
<path fill-rule="evenodd" clip-rule="evenodd" d="M21.8364 0.0941626C26.4483 0.544617 30.7588 2.59243 34.0247 5.88456L34.1243 5.92443C37.4114 9.1952 39.4563 13.5121 39.906 18.1309C40.3557 22.7497 39.1824 27.3809 36.5881 31.2261C33.9939 35.0713 30.1414 37.8896 25.6946 39.195C21.2481 40.5005 16.4859 40.2113 12.2293 38.3773C11.8277 38.2076 11.3884 38.1457 10.9556 38.1979L2.43629 39.9122H2.03834C1.76979 39.9191 1.50246 39.8714 1.2527 39.772C1.00294 39.6727 0.775893 39.5237 0.58522 39.3341C0.352554 39.1 0.181899 38.8117 0.0879052 38.495C-0.00584483 38.1784 -0.0195167 37.8434 0.0478661 37.5201L1.79958 29.0879C1.87379 28.6544 1.81129 28.2084 1.62038 27.8122C-0.210923 23.5492 -0.499741 18.78 0.803725 14.3267C2.10719 9.87341 4.9214 6.0151 8.76076 3.41697C12.6004 0.818841 17.2246 -0.356292 21.8364 0.0941626ZM32.9768 29.1615C34.3645 27.1903 35.2876 24.9296 35.6768 22.5495C36.0862 20.0512 35.8958 17.4912 35.1214 15.0812C34.3469 12.6713 33.0105 10.4806 31.2232 8.69037C29.4356 6.90017 27.2481 5.56192 24.8418 4.78631C22.4353 4.0107 19.8792 3.82001 17.3845 4.23003C15.0081 4.61977 12.7507 5.54428 10.7825 6.93399C8.81422 8.3237 7.18654 10.1424 6.0215 12.2532C4.85646 14.3641 4.18483 16.712 4.0569 19.1204C3.92897 21.5288 4.34791 23.9349 5.28273 26.1576C5.78102 27.2909 5.92677 28.5483 5.7007 29.7657L4.56618 35.3871L10.1792 34.2509C10.5474 34.1872 10.9202 34.1538 11.294 34.1512C12.1492 34.1581 12.9949 34.3342 13.782 34.6695C16.0012 35.6056 18.4038 36.0254 20.8086 35.8973C23.2134 35.7691 25.5579 35.0964 27.6655 33.9297C29.7732 32.763 31.5891 31.1327 32.9768 29.1615ZM12.7385 22.1212C13.7234 22.1212 14.522 21.1715 14.522 20C14.522 18.8285 13.7234 17.8788 12.7385 17.8788C11.7537 17.8788 10.9551 18.8285 10.9551 20C10.9551 21.1715 11.7537 22.1212 12.7385 22.1212ZM21.9107 20C21.9107 21.1715 21.1121 22.1212 20.1272 22.1212C19.1423 22.1212 18.3438 21.1715 18.3438 20C18.3438 18.8285 19.1423 17.8788 20.1272 17.8788C21.1121 17.8788 21.9107 18.8285 21.9107 20ZM29.2993 20C29.2993 21.1715 28.5007 22.1212 27.5159 22.1212C26.531 22.1212 25.7324 21.1715 25.7324 20C25.7324 18.8285 26.531 17.8788 27.5159 17.8788C28.5007 17.8788 29.2993 18.8285 29.2993 20Z" fill="#AEE1FF"/>
</svg>
